<svg width="88" height="96" viewBox="0 0 88 96" fill="none" xmlns="http://www.w3.org/2000/svg">
<rect x="16.5" y="16.5" width="63" height="63" rx="31.5" fill="#F9F9FB"/>
<rect x="16.5" y="16.5" width="63" height="63" rx="31.5" stroke="#E5E5E8"/>
<path fill-rule="evenodd" clip-rule="evenodd" d="M48.0419 37.6667C48.5942 37.6674 49.0413 38.1157 49.0406 38.668L49.0161 57.3347C49.0154 57.8869 48.5671 58.3341 48.0148 58.3334C47.4625 58.3326 47.0154 57.8843 47.0161 57.332L47.0406 38.6654C47.0413 38.1131 47.4896 37.666 48.0419 37.6667Z" fill="#999EA9"/>
<path fill-rule="evenodd" clip-rule="evenodd" d="M37.6667 48C37.6667 47.4477 38.1145 47 38.6667 47H57.3334C57.8857 47 58.3334 47.4477 58.3334 48C58.3334 48.5523 57.8857 49 57.3334 49H38.6667C38.1145 49 37.6667 48.5523 37.6667 48Z" fill="#999EA9"/>
</svg>
