<svg width="22" height="22" viewBox="0 0 22 22" fill="none" xmlns="http://www.w3.org/2000/svg">
<path fill-rule="evenodd" clip-rule="evenodd" d="M2.64285 4.14285C2.64285 3.31443 3.31443 2.64285 4.14285 2.64285H8.42857C9.25701 2.64285 9.92857 3.31443 9.92857 4.14285V8.42857C9.92857 9.25701 9.25701 9.92857 8.42857 9.92857H4.14285C3.31443 9.92857 2.64285 9.25701 2.64285 8.42857V4.14285ZM4.14285 3.92857C4.02451 3.92857 3.92857 4.02451 3.92857 4.14285V8.42857C3.92857 8.54692 4.0245 8.64285 4.14285 8.64285H8.42857C8.54693 8.64285 8.64285 8.54693 8.64285 8.42857V4.14285C8.64285 4.0245 8.54692 3.92857 8.42857 3.92857H4.14285Z" fill="#999EA9"/>
<path fill-rule="evenodd" clip-rule="evenodd" d="M2.64285 13.5714C2.64285 12.743 3.31443 12.0714 4.14285 12.0714H8.42857C9.25701 12.0714 9.92857 12.743 9.92857 13.5714V17.8572C9.92857 18.6856 9.25701 19.3572 8.42857 19.3572H4.14285C3.31443 19.3572 2.64285 18.6856 2.64285 17.8572V13.5714ZM4.14285 13.3572C4.0245 13.3572 3.92857 13.4531 3.92857 13.5714V17.8572C3.92857 17.9755 4.0245 18.0714 4.14285 18.0714H8.42857C8.54693 18.0714 8.64285 17.9755 8.64285 17.8572V13.5714C8.64285 13.4531 8.54693 13.3572 8.42857 13.3572H4.14285Z" fill="#999EA9"/>
<path fill-rule="evenodd" clip-rule="evenodd" d="M12.0714 4.14285C12.0714 3.31443 12.743 2.64285 13.5714 2.64285H17.8572C18.6856 2.64285 19.3572 3.31443 19.3572 4.14285V8.42857C19.3572 9.25701 18.6856 9.92857 17.8572 9.92857H13.5714C12.743 9.92857 12.0714 9.25701 12.0714 8.42857V4.14285ZM13.5714 3.92857C13.4531 3.92857 13.3572 4.0245 13.3572 4.14285V8.42857C13.3572 8.54693 13.4531 8.64285 13.5714 8.64285H17.8572C17.9755 8.64285 18.0714 8.54693 18.0714 8.42857V4.14285C18.0714 4.0245 17.9755 3.92857 17.8572 3.92857H13.5714Z" fill="#999EA9"/>
<path fill-rule="evenodd" clip-rule="evenodd" d="M12.0714 13.5714C12.0714 12.743 12.743 12.0714 13.5714 12.0714H17.8572C18.6856 12.0714 19.3572 12.743 19.3572 13.5714V17.8572C19.3572 18.6856 18.6856 19.3572 17.8572 19.3572H13.5714C12.743 19.3572 12.0714 18.6856 12.0714 17.8572V13.5714ZM13.5714 13.3572C13.4531 13.3572 13.3572 13.4531 13.3572 13.5714V17.8572C13.3572 17.9755 13.4531 18.0714 13.5714 18.0714H17.8572C17.9755 18.0714 18.0714 17.9755 18.0714 17.8572V13.5714C18.0714 13.4531 17.9755 13.3572 17.8572 13.3572H13.5714Z" fill="#999EA9"/>
</svg>
