<svg width="24" height="24" viewBox="0 0 24 24" fill="none" xmlns="http://www.w3.org/2000/svg">
<path fill-rule="evenodd" clip-rule="evenodd" d="M11.5315 1.41435C11.8054 1.19522 12.1946 1.19522 12.4685 1.41435L22.4685 9.41435C22.6464 9.55668 22.75 9.77216 22.75 10V22C22.75 22.4142 22.4142 22.75 22 22.75H16C15.5858 22.75 15.25 22.4142 15.25 22V13.75H8.75V22C8.75 22.4142 8.41421 22.75 8 22.75H2C1.58579 22.75 1.25 22.4142 1.25 22V10C1.25 9.77216 1.35357 9.55668 1.53148 9.41435L11.5315 1.41435ZM2.75 10.3605V21.25H7.25V13C7.25 12.5858 7.58579 12.25 8 12.25H16C16.4142 12.25 16.75 12.5858 16.75 13V21.25H21.25V10.3605L12 2.96047L2.75 10.3605Z" fill="#999EA9"/>
<path fill-rule="evenodd" clip-rule="evenodd" d="M12 16.25C12.4142 16.25 12.75 16.5858 12.75 17V22C12.75 22.4142 12.4142 22.75 12 22.75C11.5858 22.75 11.25 22.4142 11.25 22V17C11.25 16.5858 11.5858 16.25 12 16.25Z" fill="#999EA9"/>
</svg>
