<svg width="22" height="22" viewBox="0 0 22 22" fill="none" xmlns="http://www.w3.org/2000/svg">
<path fill-rule="evenodd" clip-rule="evenodd" d="M2.64285 6.11429C2.64285 5.75925 2.93067 5.47144 3.28571 5.47144H18.7143C19.0693 5.47144 19.3571 5.75925 19.3571 6.11429V18.2857C19.3571 19.1141 18.6856 19.7857 17.8571 19.7857H4.14285C3.31441 19.7857 2.64285 19.1141 2.64285 18.2857V6.11429ZM3.92857 6.75715V18.2857C3.92857 18.4041 4.02452 18.5 4.14285 18.5H17.8571C17.9755 18.5 18.0714 18.4041 18.0714 18.2857V6.75715H3.92857Z" fill="#999EA9"/>
<path fill-rule="evenodd" clip-rule="evenodd" d="M5.19894 2.47288C5.32027 2.31016 5.51132 2.21429 5.7143 2.21429H16.2857C16.4887 2.21429 16.6797 2.31016 16.8011 2.47288L19.2297 5.73003C19.4419 6.01466 19.3832 6.41744 19.0986 6.62966C18.8139 6.84189 18.4111 6.78319 18.1989 6.49856L15.9631 3.50001H6.03686L3.80109 6.49856C3.58886 6.78319 3.18608 6.84189 2.90145 6.62966C2.61682 6.41744 2.55813 6.01466 2.77035 5.73003L5.19894 2.47288Z" fill="#999EA9"/>
<path fill-rule="evenodd" clip-rule="evenodd" d="M7.76185 8.30002C8.11689 8.30002 8.4047 8.58784 8.4047 8.94288C8.4047 10.3902 9.57019 11.5571 11 11.5571C12.4297 11.5571 13.5952 10.3902 13.5952 8.94288C13.5952 8.58784 13.883 8.30002 14.238 8.30002C14.5931 8.30002 14.8809 8.58784 14.8809 8.94288C14.8809 11.0932 13.1469 12.8428 11 12.8428C8.85304 12.8428 7.11899 11.0932 7.11899 8.94288C7.11899 8.58784 7.4068 8.30002 7.76185 8.30002Z" fill="#999EA9"/>
</svg>
