<svg width="22" height="22" viewBox="0 0 22 22" fill="none" xmlns="http://www.w3.org/2000/svg">
<path fill-rule="evenodd" clip-rule="evenodd" d="M1.78571 11C1.78571 5.91111 5.91108 1.78574 11 1.78574C16.0889 1.78574 20.2143 5.91111 20.2143 11C20.2143 16.0889 16.0889 20.2143 11 20.2143C5.91108 20.2143 1.78571 16.0889 1.78571 11ZM11 3.07145C6.62116 3.07145 3.07142 6.62119 3.07142 11C3.07142 15.3789 6.62116 18.9286 11 18.9286C15.3788 18.9286 18.9286 15.3789 18.9286 11C18.9286 6.62119 15.3788 3.07145 11 3.07145Z" fill="#999EA9"/>
<path fill-rule="evenodd" clip-rule="evenodd" d="M8.21429 8.42857C8.21429 6.89007 9.46151 5.64285 11 5.64285C12.5385 5.64285 13.7857 6.89007 13.7857 8.42857C13.7857 9.96706 12.5385 11.2143 11 11.2143C9.46151 11.2143 8.21429 9.96706 8.21429 8.42857ZM11 6.92857C10.1716 6.92857 9.50001 7.60015 9.50001 8.42857C9.50001 9.25698 10.1716 9.92857 11 9.92857C11.8284 9.92857 12.5 9.25698 12.5 8.42857C12.5 7.60015 11.8284 6.92857 11 6.92857Z" fill="#999EA9"/>
<path fill-rule="evenodd" clip-rule="evenodd" d="M9.28574 13.7857C7.35587 13.7857 5.77609 15.2868 5.65092 17.1846C5.62756 17.5389 5.32142 17.8071 4.96715 17.7837C4.61288 17.7604 4.34463 17.4543 4.36799 17.1C4.53743 14.5309 6.67413 12.5 9.28574 12.5H12.7143C15.3225 12.5 17.457 14.5255 17.6314 17.0898C17.6555 17.444 17.3879 17.7507 17.0337 17.7748C16.6794 17.7989 16.3728 17.5313 16.3487 17.177C16.2198 15.2828 14.6416 13.7857 12.7143 13.7857H9.28574Z" fill="#999EA9"/>
</svg>
