<svg width="28" height="28" viewBox="0 0 28 28" fill="none" xmlns="http://www.w3.org/2000/svg">
<path fill-rule="evenodd" clip-rule="evenodd" d="M7.54797 7.54797C7.88968 7.20626 8.4437 7.20626 8.78541 7.54797L20.4521 19.2146C20.7938 19.5563 20.7938 20.1104 20.4521 20.4521C20.1104 20.7938 19.5563 20.7938 19.2146 20.4521L7.54797 8.78541C7.20626 8.4437 7.20626 7.88968 7.54797 7.54797Z" fill="white"/>
<path fill-rule="evenodd" clip-rule="evenodd" d="M20.4521 7.54797C20.7938 7.88968 20.7938 8.4437 20.4521 8.78541L8.78541 20.4521C8.4437 20.7938 7.88968 20.7938 7.54797 20.4521C7.20626 20.1104 7.20626 19.5563 7.54797 19.2146L19.2146 7.54797C19.5563 7.20626 20.1104 7.20626 20.4521 7.54797Z" fill="white"/>
</svg>
