<svg width="22" height="20" viewBox="0 0 22 20" fill="none" xmlns="http://www.w3.org/2000/svg">
<path fill-rule="evenodd" clip-rule="evenodd" d="M0.25 1C0.25 0.585786 0.585786 0.25 1 0.25H21C21.4142 0.25 21.75 0.585786 21.75 1V16C21.75 16.4142 21.4142 16.75 21 16.75H10.6771L5.83541 19.1708C5.60292 19.2871 5.32681 19.2746 5.1057 19.138C4.88459 19.0013 4.75 18.7599 4.75 18.5V16.75H1C0.585786 16.75 0.25 16.4142 0.25 16V1ZM1.75 1.75V15.25H5.5C5.91421 15.25 6.25 15.5858 6.25 16V17.2865L10.1646 15.3292C10.2687 15.2771 10.3836 15.25 10.5 15.25H20.25V1.75H1.75Z" fill="#272729"/>
</svg>
