<svg width="24" height="24" viewBox="0 0 24 24" fill="none" xmlns="http://www.w3.org/2000/svg">
<path fill-rule="evenodd" clip-rule="evenodd" d="M1.25 3C1.25 2.58579 1.58579 2.25 2 2.25H22C22.4142 2.25 22.75 2.58579 22.75 3V18C22.75 18.4142 22.4142 18.75 22 18.75H11.6771L6.83541 21.1708C6.60292 21.2871 6.32681 21.2746 6.1057 21.138C5.88459 21.0013 5.75 20.7599 5.75 20.5V18.75H2C1.58579 18.75 1.25 18.4142 1.25 18V3ZM2.75 3.75V17.25H6.5C6.91421 17.25 7.25 17.5858 7.25 18V19.2865L11.1646 17.3292C11.2687 17.2771 11.3836 17.25 11.5 17.25H21.25V3.75H2.75Z" fill="#272729"/>
<path fill-rule="evenodd" clip-rule="evenodd" d="M7 9C7.41421 9 7.75 9.33579 7.75 9.75V11.25C7.75 11.6642 7.41421 12 7 12C6.58579 12 6.25 11.6642 6.25 11.25V9.75C6.25 9.33579 6.58579 9 7 9Z" fill="#272729"/>
<path fill-rule="evenodd" clip-rule="evenodd" d="M12 9C12.4142 9 12.75 9.33579 12.75 9.75V11.25C12.75 11.6642 12.4142 12 12 12C11.5858 12 11.25 11.6642 11.25 11.25V9.75C11.25 9.33579 11.5858 9 12 9Z" fill="#272729"/>
<path fill-rule="evenodd" clip-rule="evenodd" d="M17 9C17.4142 9 17.75 9.33579 17.75 9.75V11.25C17.75 11.6642 17.4142 12 17 12C16.5858 12 16.25 11.6642 16.25 11.25V9.75C16.25 9.33579 16.5858 9 17 9Z" fill="#272729"/>
</svg>
