<svg width="24" height="24" viewBox="0 0 24 24" fill="none" xmlns="http://www.w3.org/2000/svg">
<path fill-rule="evenodd" clip-rule="evenodd" d="M2.14941 12C2.14941 11.5858 2.4852 11.25 2.89941 11.25H20.8994C21.3136 11.25 21.6494 11.5858 21.6494 12C21.6494 12.4142 21.3136 12.75 20.8994 12.75H2.89941C2.4852 12.75 2.14941 12.4142 2.14941 12Z" fill="#F23A45"/>
<path fill-rule="evenodd" clip-rule="evenodd" d="M9.42973 5.46967C9.72262 5.76256 9.72262 6.23744 9.42973 6.53033L3.96007 12L9.42973 17.4697C9.72262 17.7626 9.72262 18.2374 9.42973 18.5303C9.13683 18.8232 8.66196 18.8232 8.36907 18.5303L2.36908 12.5303C2.07619 12.2374 2.07619 11.7626 2.36908 11.4697L8.36907 5.46967C8.66196 5.17678 9.13683 5.17678 9.42973 5.46967Z" fill="#F23A45"/>
</svg>
