<svg width="14" height="14" viewBox="0 0 14 14" fill="none" xmlns="http://www.w3.org/2000/svg">
<path fill-rule="evenodd" clip-rule="evenodd" d="M8.3125 1.75C8.3125 1.50838 8.50838 1.3125 8.75 1.3125H12.25C12.4916 1.3125 12.6875 1.50838 12.6875 1.75V5.25C12.6875 5.49162 12.4916 5.6875 12.25 5.6875C12.0084 5.6875 11.8125 5.49162 11.8125 5.25V2.1875H8.75C8.50838 2.1875 8.3125 1.99162 8.3125 1.75Z" fill="#999EA9"/>
<path fill-rule="evenodd" clip-rule="evenodd" d="M12.5594 1.44064C12.7302 1.6115 12.7302 1.8885 12.5594 2.05936L5.85105 8.76769C5.68019 8.93855 5.40318 8.93855 5.23233 8.76769C5.06147 8.59684 5.06147 8.31983 5.23233 8.14897L11.9407 1.44064C12.1115 1.26979 12.3885 1.26979 12.5594 1.44064Z" fill="#999EA9"/>
<path fill-rule="evenodd" clip-rule="evenodd" d="M1.3125 2.33333C1.3125 1.76954 1.76954 1.3125 2.33333 1.3125H5.39583C5.63746 1.3125 5.83333 1.50838 5.83333 1.75C5.83333 1.99162 5.63746 2.1875 5.39583 2.1875H2.33333C2.25279 2.1875 2.1875 2.25279 2.1875 2.33333V11.6667C2.1875 11.7472 2.25279 11.8125 2.33333 11.8125H11.6667C11.7472 11.8125 11.8125 11.7472 11.8125 11.6667V8.60417C11.8125 8.36254 12.0084 8.16667 12.25 8.16667C12.4916 8.16667 12.6875 8.36254 12.6875 8.60417V11.6667C12.6875 12.2305 12.2305 12.6875 11.6667 12.6875H2.33333C1.76955 12.6875 1.3125 12.2305 1.3125 11.6667V2.33333Z" fill="#999EA9"/>
</svg>
