<svg width="24" height="24" viewBox="0 0 24 24" fill="none" xmlns="http://www.w3.org/2000/svg">
<path fill-rule="evenodd" clip-rule="evenodd" d="M4.5 3.75C4.08579 3.75 3.75 4.08579 3.75 4.5V19.5C3.75 19.9142 4.08579 20.25 4.5 20.25H19.5C19.9142 20.25 20.25 19.9142 20.25 19.5V4.5C20.25 4.08579 19.9142 3.75 19.5 3.75H4.5ZM2.25 4.5C2.25 3.25736 3.25736 2.25 4.5 2.25H19.5C20.7426 2.25 21.75 3.25736 21.75 4.5V19.5C21.75 20.7426 20.7426 21.75 19.5 21.75H4.5C3.25736 21.75 2.25 20.7426 2.25 19.5V4.5Z" fill="#F23A45"/>
<path fill-rule="evenodd" clip-rule="evenodd" d="M5.75 6.5C5.75 6.08579 6.08579 5.75 6.5 5.75H10.5C10.9142 5.75 11.25 6.08579 11.25 6.5V10.5C11.25 10.9142 10.9142 11.25 10.5 11.25H6.5C6.08579 11.25 5.75 10.9142 5.75 10.5V6.5ZM7.25 7.25V9.75H9.75V7.25H7.25Z" fill="#F23A45"/>
<path fill-rule="evenodd" clip-rule="evenodd" d="M12.75 6.5C12.75 6.08579 13.0858 5.75 13.5 5.75H17.5C17.9142 5.75 18.25 6.08579 18.25 6.5C18.25 6.91421 17.9142 7.25 17.5 7.25H13.5C13.0858 7.25 12.75 6.91421 12.75 6.5Z" fill="#F23A45"/>
<path fill-rule="evenodd" clip-rule="evenodd" d="M12.75 10C12.75 9.58579 13.0858 9.25 13.5 9.25H17.5C17.9142 9.25 18.25 9.58579 18.25 10C18.25 10.4142 17.9142 10.75 17.5 10.75H13.5C13.0858 10.75 12.75 10.4142 12.75 10Z" fill="#F23A45"/>
<path fill-rule="evenodd" clip-rule="evenodd" d="M5.75 14C5.75 13.5858 6.08579 13.25 6.5 13.25H17.5C17.9142 13.25 18.25 13.5858 18.25 14C18.25 14.4142 17.9142 14.75 17.5 14.75H6.5C6.08579 14.75 5.75 14.4142 5.75 14Z" fill="#F23A45"/>
<path fill-rule="evenodd" clip-rule="evenodd" d="M5.75 17.5C5.75 17.0858 6.08579 16.75 6.5 16.75H17.5C17.9142 16.75 18.25 17.0858 18.25 17.5C18.25 17.9142 17.9142 18.25 17.5 18.25H6.5C6.08579 18.25 5.75 17.9142 5.75 17.5Z" fill="#F23A45"/>
</svg>
