<svg width="24" height="24" viewBox="0 0 24 24" fill="none" xmlns="http://www.w3.org/2000/svg">
<path fill-rule="evenodd" clip-rule="evenodd" d="M12.0269 5.35715C12.3819 5.35761 12.6693 5.64581 12.6689 6.00085L12.6531 18.0008C12.6527 18.3559 12.3645 18.6433 12.0094 18.6429C11.6544 18.6424 11.367 18.3542 11.3674 17.9992L11.3832 5.99916C11.3836 5.64412 11.6718 5.35668 12.0269 5.35715Z" fill="white"/>
<path fill-rule="evenodd" clip-rule="evenodd" d="M5.35718 12C5.35718 11.645 5.64499 11.3571 6.00003 11.3571H18C18.3551 11.3571 18.6429 11.645 18.6429 12C18.6429 12.355 18.3551 12.6429 18 12.6429H6.00003C5.64499 12.6429 5.35718 12.355 5.35718 12Z" fill="white"/>
</svg>
