<svg width="28" height="28" viewBox="0 0 28 28" fill="none" xmlns="http://www.w3.org/2000/svg">
<g filter="url(#filter0_b_12292_7490)">
<rect width="28" height="28" rx="14" fill="#21242C" fill-opacity="0.4"/>
<rect x="0.5" y="0.5" width="27" height="27" rx="13.5" stroke="#F9F9FB"/>
<path fill-rule="evenodd" clip-rule="evenodd" d="M8.46967 8.46967C8.76256 8.17678 9.23744 8.17678 9.53033 8.46967L19.5303 18.4697C19.8232 18.7626 19.8232 19.2374 19.5303 19.5303C19.2374 19.8232 18.7626 19.8232 18.4697 19.5303L8.46967 9.53033C8.17678 9.23744 8.17678 8.76256 8.46967 8.46967Z" fill="white"/>
<path fill-rule="evenodd" clip-rule="evenodd" d="M19.5303 8.46967C19.8232 8.76256 19.8232 9.23744 19.5303 9.53033L9.53033 19.5303C9.23744 19.8232 8.76256 19.8232 8.46967 19.5303C8.17678 19.2374 8.17678 18.7626 8.46967 18.4697L18.4697 8.46967C18.7626 8.17678 19.2374 8.17678 19.5303 8.46967Z" fill="white"/>
</g>
<defs>
<filter id="filter0_b_12292_7490" x="-20" y="-20" width="68" height="68" filterUnits="userSpaceOnUse" color-interpolation-filters="sRGB">
<feFlood flood-opacity="0" result="BackgroundImageFix"/>
<feGaussianBlur in="BackgroundImageFix" stdDeviation="10"/>
<feComposite in2="SourceAlpha" operator="in" result="effect1_backgroundBlur_12292_7490"/>
<feBlend mode="normal" in="SourceGraphic" in2="effect1_backgroundBlur_12292_7490" result="shape"/>
</filter>
</defs>
</svg>
