<svg width="24" height="24" viewBox="0 0 24 24" fill="none" xmlns="http://www.w3.org/2000/svg">
<path fill-rule="evenodd" clip-rule="evenodd" d="M22.0303 1.96969C22.2341 2.17342 22.3031 2.47584 22.2079 2.74778L15.5579 21.7478C15.4563 22.038 15.1878 22.2369 14.8806 22.2494C14.5733 22.2619 14.2895 22.0856 14.1646 21.8046L10.4818 13.5182L2.1954 9.83538C1.91439 9.71049 1.73809 9.42671 1.75063 9.11945C1.76316 8.81219 1.96199 8.54371 2.25224 8.44213L21.2522 1.79213C21.5242 1.69695 21.8266 1.76596 22.0303 1.96969ZM4.53331 9.23297L11.3546 12.2647C11.5243 12.3401 11.66 12.4757 11.7354 12.6454L14.7671 19.4667L20.2775 3.7225L4.53331 9.23297Z" fill="white"/>
<path fill-rule="evenodd" clip-rule="evenodd" d="M22.0304 1.96967C22.3233 2.26256 22.3233 2.73744 22.0304 3.03033L11.5804 13.4803C11.2875 13.7732 10.8126 13.7732 10.5197 13.4803C10.2268 13.1874 10.2268 12.7126 10.5197 12.4197L20.9697 1.96967C21.2626 1.67678 21.7375 1.67678 22.0304 1.96967Z" fill="white"/>
</svg>
