<svg width="24" height="24" viewBox="0 0 24 24" fill="none" xmlns="http://www.w3.org/2000/svg">
<path fill-rule="evenodd" clip-rule="evenodd" d="M9.12596 1.63872C9.46935 1.54367 9.83221 1.70332 9.99413 2.02071C10.3672 2.75194 11.1261 3.25003 12 3.25003C12.8739 3.25003 13.6328 2.75194 14.0059 2.02071C14.1678 1.70332 14.5307 1.54367 14.874 1.63872C16.5585 2.105 18.0759 2.97043 19.3184 4.12578C19.5611 4.3514 19.6269 4.70951 19.4804 5.00669C19.3331 5.30538 19.25 5.64193 19.25 6.00003C19.25 7.24267 20.2574 8.25003 21.5 8.25003L21.5314 8.2498C21.8629 8.24507 22.1583 8.45862 22.2576 8.77498C22.5777 9.794 22.75 10.8776 22.75 12C22.75 12.7408 22.6749 13.4649 22.5318 14.1648C22.4548 14.5412 22.1059 14.7985 21.7237 14.7609C21.6504 14.7537 21.5758 14.75 21.5 14.75C20.2574 14.75 19.25 15.7574 19.25 17C19.25 17.5531 19.4486 18.0579 19.7793 18.4498C20.027 18.7434 20.0128 19.1767 19.7465 19.4535C18.4777 20.7719 16.8745 21.7678 15.0721 22.3044C14.6807 22.421 14.2681 22.203 14.1437 21.814C13.8535 20.906 13.0024 20.25 12 20.25C10.9976 20.25 10.1465 20.906 9.85629 21.814C9.73195 22.203 9.31927 22.421 8.92789 22.3044C7.12545 21.7678 5.52229 20.7719 4.25353 19.4535C3.98716 19.1767 3.97299 18.7434 4.22072 18.4498C4.55139 18.0579 4.75 17.5531 4.75 17C4.75 15.7574 3.74264 14.75 2.5 14.75C2.42423 14.75 2.34963 14.7537 2.27634 14.7609C1.89406 14.7985 1.54519 14.5412 1.46821 14.1648C1.32505 13.4649 1.25 12.7408 1.25 12C1.25 10.8776 1.42227 9.79401 1.74236 8.77497C1.84173 8.45862 2.13705 8.24507 2.4686 8.2498L2.5 8.25003C3.74264 8.25003 4.75 7.24267 4.75 6.00003C4.75 5.64193 4.66689 5.30538 4.51962 5.00669C4.3731 4.70951 4.43894 4.3514 4.68159 4.12578C5.92411 2.97043 7.44153 2.105 9.12596 1.63872ZM6.08277 4.88994C6.19152 5.24126 6.25 5.61427 6.25 6.00003C6.25 7.88948 4.85261 9.45256 3.03493 9.71216C2.84898 10.4432 2.75 11.2096 2.75 12C2.75 12.4294 2.77921 12.8516 2.83567 13.2648C4.74948 13.4346 6.25 15.0421 6.25 17C6.25 17.667 6.0754 18.2941 5.76971 18.8372C6.62645 19.6184 7.63002 20.2404 8.73362 20.657C9.37706 19.519 10.598 18.75 12 18.75C13.402 18.75 14.6229 19.519 15.2664 20.657C16.37 20.2404 17.3735 19.6184 18.2303 18.8372C17.9246 18.2941 17.75 17.667 17.75 17C17.75 15.0421 19.2505 13.4346 21.1643 13.2648C21.2208 12.8516 21.25 12.4294 21.25 12C21.25 11.2096 21.151 10.4432 20.9651 9.71216C19.1474 9.45256 17.75 7.88948 17.75 6.00003C17.75 5.61427 17.8085 5.24126 17.9172 4.88994C17.0618 4.17713 16.0762 3.61617 15.0018 3.24778C14.3184 4.159 13.2287 4.75003 12 4.75003C10.7713 4.75003 9.68158 4.159 8.99819 3.24778C7.92382 3.61617 6.93823 4.17713 6.08277 4.88994Z" fill="#F23A45"/>
<path fill-rule="evenodd" clip-rule="evenodd" d="M7.75 12C7.75 9.65279 9.65279 7.75 12 7.75C14.3472 7.75 16.25 9.65279 16.25 12C16.25 14.3472 14.3472 16.25 12 16.25C9.65279 16.25 7.75 14.3472 7.75 12ZM12 9.25C10.4812 9.25 9.25 10.4812 9.25 12C9.25 13.5188 10.4812 14.75 12 14.75C13.5188 14.75 14.75 13.5188 14.75 12C14.75 10.4812 13.5188 9.25 12 9.25Z" fill="#F23A45"/>
</svg>
