<svg width="120" height="143" viewBox="0 0 120 143" fill="none" xmlns="http://www.w3.org/2000/svg">
<rect width="120" height="143" fill="#F23A45"/>
<path d="M59.6536 11.0065H108V132H77.2647V92.9393H70.7059L46.3611 132H12L39.6274 88.6158C32.3758 85.2711 26.6781 80.4355 22.5343 74.096C18.3905 67.7566 16.3186 60.6718 16.3186 52.835C16.3186 40.6164 20.4624 30.6535 28.75 22.9269C37.0376 14.98 47.3323 11 59.6536 11V11.0065ZM59.9968 66.6612H77.2647V39.5209H59.9968C56.3127 39.5209 53.2048 40.8497 50.6732 43.5009C48.2582 46.0354 47.0474 49.2634 47.0474 53.1786C47.0474 57.2104 48.2582 60.5032 50.6732 63.0312C51.8793 64.2664 53.335 65.2292 54.943 65.8553C56.551 66.4813 58.2741 66.7561 59.9968 66.6612Z" fill="white"/>
</svg>
