<svg width="40" height="40" viewBox="0 0 40 40" fill="none" xmlns="http://www.w3.org/2000/svg">
<rect width="40" height="40" rx="20" fill="black"/>
<path d="M26.0457 16.3854C27.7238 17.5849 29.7796 18.2906 32 18.2906V14.0185C31.5798 14.0186 31.1607 13.9748 30.7495 13.8877V17.2505C28.5294 17.2505 26.4738 16.5447 24.7952 15.3454V24.0635C24.7952 28.4247 21.2593 31.9599 16.8977 31.9599C15.2703 31.9599 13.7577 31.468 12.5012 30.6243C13.9353 32.0905 15.9353 33 18.1479 33C22.5097 33 26.0459 29.4648 26.0459 25.1034V16.3854H26.0457ZM27.5882 12.0754C26.7306 11.1386 26.1675 9.92792 26.0457 8.58946V8.03998H24.8607C25.159 9.74116 26.1763 11.1946 27.5882 12.0754ZM15.2599 27.2776C14.7807 26.6495 14.5218 25.881 14.523 25.0909C14.523 23.0962 16.1403 21.4789 18.1356 21.4789C18.5075 21.4788 18.8771 21.5357 19.2315 21.6482V17.2806C18.8173 17.2239 18.3994 17.1998 17.9816 17.2086V20.6081C17.6269 20.4957 17.2571 20.4386 16.8852 20.4389C14.8898 20.4389 13.2726 22.0561 13.2726 24.051C13.2726 25.4615 14.081 26.6827 15.2599 27.2776Z" fill="#FF004F"/>
<path d="M24.7952 15.3453C26.4738 16.5446 28.5294 17.2504 30.7496 17.2504V13.8876C29.5103 13.6237 28.4131 12.9761 27.5882 12.0754C26.1763 11.1945 25.159 9.74107 24.8607 8.03998H21.7481V25.1032C21.741 27.0924 20.1265 28.7031 18.1354 28.7031C16.9622 28.7031 15.9198 28.1439 15.2597 27.2776C14.0808 26.6827 13.2724 25.4614 13.2724 24.0511C13.2724 22.0563 14.8897 20.439 16.885 20.439C17.2673 20.439 17.6358 20.4985 17.9814 20.6082V17.2087C13.6965 17.2972 10.2504 20.7979 10.2504 25.1033C10.2504 27.2525 11.1085 29.2008 12.5013 30.6244C13.7578 31.468 15.2704 31.96 16.8978 31.96C21.2595 31.96 24.7953 28.4246 24.7953 24.0635V15.3453H24.7952Z" fill="white"/>
<path d="M30.7496 13.8876L30.7496 12.9784C29.632 12.9801 28.5364 12.6671 27.5882 12.0753C28.4276 12.9942 29.5328 13.6277 30.7496 13.8876ZM24.8607 8.03998C24.8322 7.8774 24.8104 7.71376 24.7952 7.54948V7H20.4976V24.0634C20.4907 26.0523 18.8762 27.663 16.885 27.663C16.3004 27.663 15.7484 27.5243 15.2596 27.2777C15.9198 28.1439 16.9621 28.703 18.1354 28.703C20.1263 28.703 21.7411 27.0925 21.7481 25.1033L21.7481 8.03998H24.8607ZM17.9816 17.2087V16.2407C17.6225 16.1916 17.2604 16.167 16.8979 16.1672C12.5359 16.1671 9 19.7025 9 24.0634C9 26.7974 10.3897 29.2069 12.5014 30.6242C11.1086 29.2007 10.2504 27.2523 10.2504 25.1032C10.2504 20.7979 13.6965 17.2972 17.9816 17.2087Z" fill="#00F2EA"/>
</svg>
