<svg width="62" height="62" viewBox="0 0 62 62" fill="none" xmlns="http://www.w3.org/2000/svg">
<path d="M31 34.875C40.627 34.875 48.4375 27.0645 48.4375 17.4375C48.4375 7.81055 40.627 0 31 0C21.373 0 13.5625 7.81055 13.5625 17.4375C13.5625 27.0645 21.373 34.875 31 34.875ZM46.5 38.75H39.8277C37.1395 39.9852 34.1484 40.6875 31 40.6875C27.8516 40.6875 24.8727 39.9852 22.1723 38.75H15.5C6.93867 38.75 0 45.6887 0 54.25V56.1875C0 59.3965 2.60352 62 5.8125 62H56.1875C59.3965 62 62 59.3965 62 56.1875V54.25C62 45.6887 55.0613 38.75 46.5 38.75Z" fill="#999EA9"/>
</svg>
