<svg width="40" height="40" viewBox="0 0 40 40" fill="none" xmlns="http://www.w3.org/2000/svg">
<rect width="40" height="40" rx="20" fill="#F23A45"/>
<path d="M19.4459 10.501H27V29.5H22.1976V23.3665H21.1728L17.3689 29.5H12L16.3168 22.6876C15.1837 22.1624 14.2935 21.4031 13.646 20.4076C12.9985 19.4122 12.6748 18.2997 12.6748 17.0691C12.6748 15.1505 13.3223 13.5861 14.6172 12.3728C15.9121 11.125 17.5207 10.5 19.4459 10.5V10.501ZM19.4995 19.2402H22.1976V14.9785H19.4995C18.9239 14.9785 18.4383 15.1871 18.0427 15.6034C17.6653 16.0014 17.4762 16.5083 17.4762 17.1231C17.4762 17.7562 17.6653 18.2732 18.0427 18.6702C18.2311 18.8641 18.4586 19.0153 18.7098 19.1136C18.9611 19.2119 19.2303 19.2551 19.4995 19.2402Z" fill="white"/>
</svg>
